<?xml version="1.0" encoding="UTF-8"?>
<svg id="Layer_1" data-name="Layer 1" xmlns="http://www.w3.org/2000/svg" viewBox="0 0 100 100">
  <defs>
    <style>
      .cls-1 {
        fill: #a5a5a5;
      }
    </style>
  </defs>
  <path class="cls-1" d="m98.18,66.64l-12.29-60.49c-.37-1.84-1.99-3.15-3.86-3.15H17.97c-1.87,0-3.49,1.32-3.86,3.15L1.82,66.64c-.5,2.44,1.37,4.72,3.86,4.72h37.91v12.82h-18.69c-3.54,0-6.41,2.87-6.41,6.41s2.87,6.41,6.41,6.41h50.2c3.54,0,6.41-2.87,6.41-6.41s-2.87-6.41-6.41-6.41h-18.69v-12.82h37.91c2.49,0,4.36-2.28,3.86-4.72Zm-22.53-51.89l2.94,14.47h-11.17l-1.54-14.47h9.77Zm-21.58,0l1.54,14.47h-11.2l1.54-14.47h8.12Zm-19.94,0l-1.54,14.47h-11.17l2.94-14.47h9.77ZM15.24,59.61l3.79-18.64h12.31l-1.98,18.64h-14.11Zm25.93,0l1.98-18.64h13.7l1.98,18.64h-17.66Zm29.48,0l-1.98-18.64h12.31l3.79,18.64h-14.11Z"/>
</svg>