<?xml version="1.0" encoding="UTF-8"?>
<svg id="Layer_1" data-name="Layer 1" xmlns="http://www.w3.org/2000/svg" viewBox="0 0 100 100">
  <defs>
    <style>
      .cls-1 {
        fill: #a5a5a5;
      }
    </style>
  </defs>
  <path class="cls-1" d="m78.99,39.45c-.97-1.66-2.79-2.7-4.71-2.7h-18.84V7.83c0-2.43-1.67-4.62-4.01-5.26-.97-.26-1.93-.26-2.9,0-1.28.35-2.67,1.28-3.26,2.51-1.12,2.31-2.24,4.61-3.36,6.92-2.53,5.22-5.07,10.43-7.6,15.65-2.7,5.57-5.41,11.14-8.11,16.7-1.63,3.36-3.26,6.72-4.9,10.09-.1.2-.19.4-.29.59-.49.85-.74,1.77-.74,2.75,0,.98.25,1.9.74,2.75.97,1.66,2.79,2.7,4.71,2.7h18.8v28.93c0,.07.02.14.02.21,0,.17.03.34.05.51.02.17.04.35.09.52.02.07.02.14.03.21.04.16.12.31.18.47.03.09.06.18.1.27.12.27.26.52.42.76.03.04.05.08.08.12.18.27.39.51.61.74.02.02.03.03.04.05.23.23.48.43.74.61.03.02.06.04.08.06.09.06.16.13.25.18.15.09.32.14.48.22.09.04.19.09.28.13.2.08.41.14.62.2.16.04.31.08.47.11.18.03.36.04.55.06.12,0,.23.04.36.04.06,0,.13-.02.19-.02.19,0,.38-.03.57-.06.16-.02.32-.04.47-.08.07-.02.15-.02.22-.04.16-.04.32-.12.49-.19.08-.03.16-.06.24-.09,1.05-.45,2.05-1.24,2.54-2.23,1.12-2.3,2.24-4.61,3.36-6.91,2.53-5.21,5.07-10.42,7.6-15.63,2.71-5.57,5.41-11.13,8.12-16.7,1.64-3.37,3.28-6.75,4.92-10.12.1-.2.2-.41.3-.61.49-.85.74-1.77.74-2.75,0-.98-.25-1.9-.74-2.75Z"/>
</svg>