<?xml version="1.0" encoding="UTF-8"?>
<svg id="Layer_1" data-name="Layer 1" xmlns="http://www.w3.org/2000/svg" viewBox="0 0 100 100">
  <defs>
    <style>
      .cls-1 {
        fill: #a5a5a5;
      }
    </style>
  </defs>
  <path class="cls-1" d="m88.35,79.98l-13.84-18.81h4.23c1.16,0,2.11-.63,2.64-1.58.53-.95.42-2.22-.21-3.06l-13.84-18.91h4.23c1.16,0,2.11-.63,2.64-1.58.53-.95.42-2.22-.21-3.06L52.32,3.48c-1.06-1.48-3.59-1.48-4.75,0l-21.55,29.37c-.63.85-.74,2.11-.21,3.06.53.95,1.48,1.58,2.64,1.58h4.23l-13.84,18.91c-.63.85-.74,2.11-.21,3.06.53.95,1.48,1.58,2.64,1.58h4.23l-13.84,18.91c-.63.85-.74,2.11-.21,3.06.53.95,1.48,1.58,2.64,1.58h29.96v12c0,.55.45,1,1,1h9.93c.55,0,1-.45,1-1v-12h29.96c1.16,0,2.11-.63,2.64-1.58.53-.95.42-2.11-.21-3.06Z"/>
</svg>