<?xml version="1.0" encoding="UTF-8"?>
<svg id="Layer_1" data-name="Layer 1" xmlns="http://www.w3.org/2000/svg" viewBox="0 0 100 100">
  <defs>
    <style>
      .cls-1 {
        fill: #a5a5a5;
      }
    </style>
  </defs>
  <path class="cls-1" d="m59.01,85.65h-3.29v-12.65c0-.82-.66-1.48-1.48-1.48h-8.25c-.82,0-1.48.66-1.48,1.48v12.65h-3.29c-.82,0-1.49.65-1.49,1.47,0,.38.14.75.41,1.03l8.9,9.33c.56.6,1.5.63,2.1.07.02-.02.05-.05.07-.07l8.9-9.33c.57-.59.54-1.53-.05-2.1-.28-.27-.65-.41-1.03-.41Z"/>
  <path class="cls-1" d="m31.19,75.73h-3.32v-9.68c0-.82-.66-1.48-1.48-1.48h-8.26c-.82,0-1.48.66-1.48,1.48v9.68h-3.25c-.82,0-1.49.65-1.49,1.47,0,.38.14.75.41,1.03l8.9,9.33c.56.59,1.5.62,2.1.05.02-.02.04-.04.05-.05l8.9-9.33c.57-.59.54-1.53-.05-2.1-.27-.26-.64-.41-1.02-.41Z"/>
  <path class="cls-1" d="m54.84,36.39c-.17-.02-.35-.02-.52-.02-2.32-.08-4.28,1.73-4.36,4.06,0,.18,0,.36.02.54-.14,2.4,1.69,4.45,4.08,4.59,2.4.14,4.45-1.69,4.59-4.08,0-.17,0-.34,0-.51.21-2.32-1.49-4.37-3.81-4.58Z"/>
  <path class="cls-1" d="m91.09,29.02s-.05,0-.07,0c-4.48-3.64-10.41-4.95-16-3.54-1.45-4.31-5.42-7.26-9.97-7.42C61.27,6.02,48.44-.68,36.4,3.1c-3.47,1.09-6.64,3-9.23,5.56-.02,0-.05,0-.07,0-4.27,4.28-6.69,10.07-6.73,16.12-9.95.09-17.95,8.22-17.86,18.18s8.22,17.95,18.18,17.86h58.88c9.95-.04,17.99-8.14,17.94-18.09-.02-5.29-2.36-10.3-6.41-13.7Zm-54.87,11.92c-.23,2.3,1.44,4.35,3.74,4.58.23.02.45.03.68.01h.03c1.12.02,2.22-.27,3.19-.82.52-.27,1.17-.18,1.59.24.25.24.39.57.39.92.02.52-.26,1.01-.73,1.25-1.39.83-2.98,1.27-4.6,1.25-3.85.16-7.09-2.84-7.25-6.68,0-.24,0-.49,0-.73-.24-3.85,2.69-7.17,6.54-7.41.23-.01.47-.02.7,0,1.62-.02,3.22.42,4.61,1.26.66.34.92,1.16.58,1.82-.34.66-1.16.92-1.82.58-.98-.55-2.08-.83-3.2-.82-2.3-.16-4.3,1.58-4.46,3.89-.02.22-.01.44,0,.66Zm25.36.01c.22,3.88-2.75,7.19-6.63,7.41-.2.01-.41.01-.61,0-3.87.14-7.12-2.89-7.26-6.76,0-.22,0-.44,0-.65-.18-4,2.92-7.39,6.92-7.57,4-.18,7.39,2.92,7.57,6.92,0,.22,0,.44,0,.66Zm5.03,7.22c-.06,0-.12,0-.18,0h-2.97c-.17,0-.34-.06-.46-.18-.12-.12-.18-.28-.18-.45,0-.31.09-.62.27-.87.68-.98,2.09-1.48,2.64-2.15.2-.27.17-.64-.07-.88-.4-.36-1.48-.18-1.96,0-.21.1-.46.05-.62-.1-.21-.22-.2-.57.02-.78.03-.03.07-.06.12-.08.86-.47,1.88-.55,2.8-.21.86.41,1.23,1.43.82,2.29-.04.09-.09.18-.15.26-.7.77-1.52,1.43-2.42,1.96l2.17.07c.31-.05.6.16.65.47s-.16.6-.47.65Z"/>
  <path class="cls-1" d="m86.93,75.73h-3.34v-9.68c0-.82-.66-1.48-1.48-1.48h-8.26c-.82,0-1.48.66-1.48,1.48v9.68h-3.23c-.6,0-1.13.36-1.36.9-.23.55-.11,1.17.3,1.6l8.9,9.33c.28.29.66.46,1.07.46.41,0,.8-.16,1.08-.46l8.9-9.33c.57-.59.54-1.53-.05-2.1-.28-.27-.65-.41-1.03-.41Z"/>
</svg>