<?xml version="1.0" encoding="UTF-8"?>
<svg id="Layer_1" data-name="Layer 1" xmlns="http://www.w3.org/2000/svg" viewBox="0 0 100 100">
  <defs>
    <style>
      .cls-1 {
        fill: #a5a5a5;
      }
    </style>
  </defs>
  <path class="cls-1" d="m66.95,32.21h0c-.59-.57-2.25-1.75-4.97-.52l-16.84,7.57c-2.28,1.03-4.64,3.45-5.61,5.77-.06.15-.08.28-.09.34-1.72,4.31-.7,9.18,2.63,12.41,1.09,1.06,2.35,1.88,3.74,2.43,1.34.53,2.75.8,4.2.8.06,0,.11,0,.17,0,1.51-.02,2.98-.34,4.39-.96.07-.01.18-.04.33-.1,1.07-.48,2.22-1.31,3.23-2.34l.14-.15c.99-1.03,1.78-2.19,2.23-3.27l7.11-17.04c1.18-2.84-.21-4.51-.66-4.96Zm-16.95,22.79c-2.76,0-5-2.24-5-5s2.24-5,5-5,5,2.24,5,5-2.24,5-5,5Z"/>
  <path class="cls-1" d="m50,1.86C23.53,1.86,2,23.39,2,49.86c0,.8.02,1.59.06,2.38.02.43.06.86.09,1.3.03.35.04.7.08,1.04.06.58.13,1.16.21,1.73.03.19.04.39.07.58.1.66.21,1.31.33,1.96.02.1.03.21.05.31.14.7.29,1.4.46,2.09.01.05.02.1.03.15.18.72.37,1.43.58,2.14,0,.03.01.05.02.08.21.71.44,1.42.69,2.12,0,.02.01.04.02.07.24.69.51,1.38.78,2.06.01.03.02.06.04.09.27.66.56,1.32.86,1.97.02.05.05.1.07.16.29.62.59,1.23.91,1.84.04.08.08.17.13.25.3.57.62,1.13.94,1.69.07.12.14.24.21.36.3.51.62,1.02.95,1.52.1.16.21.33.31.49.3.46.61.9.93,1.35.15.2.29.41.44.61.29.4.59.79.9,1.18.19.24.38.49.58.73.28.34.57.68.86,1.02.24.28.48.55.72.83.27.3.54.59.82.88.16.17.31.34.48.51.03.04.07.06.11.09.21.21.41.43.62.64l.13-.13c1.05.49,2.33.33,3.23-.5l6.4-6.25c.96-.96.96-2.51,0-3.46-.96-.96-2.51-.96-3.46,0l-4.11,4.11c-.11-.12-.22-.24-.32-.36-.23-.27-.46-.53-.69-.81-.15-.18-.3-.37-.44-.55-.25-.31-.5-.62-.74-.94-.1-.13-.19-.26-.28-.39-.28-.38-.55-.75-.82-1.14,0,0,0,0,0,0-1.66-2.42-3.05-4.99-4.17-7.67,0,0,0-.02-.01-.03-.21-.5-.4-1-.59-1.51-.02-.06-.05-.12-.07-.19-.17-.47-.33-.95-.49-1.43-.03-.1-.06-.2-.09-.29-.14-.46-.28-.92-.41-1.38-.04-.13-.07-.26-.1-.39-.12-.44-.23-.88-.33-1.33-.04-.15-.07-.31-.1-.46-.09-.43-.18-.85-.27-1.28-.03-.18-.06-.37-.1-.56-.07-.41-.14-.81-.2-1.22-.03-.23-.06-.45-.09-.68-.05-.38-.1-.75-.14-1.13-.03-.33-.05-.66-.08-.99-.02-.28-.05-.55-.06-.83h5.81c1.35,0,2.45-1.1,2.45-2.45s-1.1-2.45-2.45-2.45h-5.81c.56-9.77,4.48-18.66,10.6-25.53l4.09,4.09c.48.48,1.1.72,1.73.72s1.25-.24,1.73-.72c.96-.96.96-2.51,0-3.46l-4.09-4.09c6.87-6.12,15.76-10.04,25.53-10.6v5.81c0,1.35,1.1,2.45,2.45,2.45s2.45-1.1,2.45-2.45v-5.81c9.77.56,18.66,4.48,25.53,10.6l-4.09,4.09c-.96.96-.96,2.51,0,3.46.48.48,1.1.72,1.73.72s1.25-.24,1.73-.72l4.09-4.09c6.12,6.87,10.04,15.76,10.6,25.53h-5.81c-1.35,0-2.45,1.1-2.45,2.45s1.1,2.45,2.45,2.45h5.81c-.02.28-.04.55-.06.83-.03.33-.05.66-.08.99-.04.38-.09.76-.14,1.13-.03.23-.05.45-.09.68-.06.41-.13.82-.2,1.22-.03.19-.06.37-.1.56-.08.43-.17.86-.27,1.28-.03.16-.07.31-.1.46-.1.45-.22.89-.33,1.33-.03.13-.07.26-.1.39-.13.46-.26.92-.41,1.38-.03.1-.06.2-.09.29-.16.48-.32.96-.49,1.43-.02.06-.05.12-.07.19-.19.51-.38,1.01-.59,1.51,0,0,0,.02-.01.03-1.11,2.69-2.51,5.26-4.17,7.67,0,0,0,0,0,0-.26.38-.54.76-.82,1.14-.1.13-.19.26-.28.39-.24.32-.49.63-.74.94-.15.18-.29.37-.44.55-.22.27-.46.54-.69.81-.11.12-.21.24-.32.36l-4.11-4.11c-.96-.96-2.51-.96-3.46,0-.96.96-.96,2.51,0,3.46l6.4,6.25c.9.83,2.18.99,3.23.5l.13.13c.21-.21.41-.43.62-.64.04-.03.08-.06.11-.09.16-.17.31-.34.48-.51.28-.29.55-.58.82-.88.25-.27.49-.55.72-.83.29-.34.58-.68.86-1.02.2-.24.39-.49.58-.73.31-.39.61-.78.9-1.18.15-.2.29-.41.44-.61.32-.45.63-.89.93-1.35.11-.16.21-.33.31-.49.32-.5.64-1.01.95-1.52.07-.12.14-.24.21-.36.32-.56.64-1.12.94-1.69.04-.08.08-.17.13-.25.32-.61.62-1.22.91-1.84.02-.05.05-.1.07-.16.3-.65.59-1.31.86-1.97.01-.03.02-.06.04-.09.28-.68.54-1.37.78-2.06,0-.02.01-.04.02-.07.25-.7.48-1.41.69-2.12,0-.03.01-.05.02-.08.21-.71.4-1.42.58-2.14.01-.05.02-.1.03-.15.17-.69.32-1.39.46-2.09.02-.1.03-.21.05-.31.12-.65.24-1.31.33-1.96.03-.19.05-.38.07-.58.08-.58.15-1.15.21-1.73.03-.35.05-.7.08-1.04.03-.43.07-.86.09-1.3.04-.79.06-1.58.06-2.38C98,23.39,76.47,1.86,50,1.86Z"/>
</svg>