<?xml version="1.0" encoding="UTF-8"?>
<svg id="Layer_1" data-name="Layer 1" xmlns="http://www.w3.org/2000/svg" viewBox="0 0 100 100">
  <defs>
    <style>
      .cls-1 {
        fill: #a5a5a5;
      }
    </style>
  </defs>
  <path class="cls-1" d="m80.65,15.02h-11.99c.13-.27.21-.57.21-.9V4.36c0-1.16-.94-2.09-2.09-2.09h-33.56c-1.16,0-2.09.94-2.09,2.09v9.77c0,.32.08.62.21.9h-11.99c-1.85,0-3.35,1.5-3.35,3.35v76.01c0,1.85,1.5,3.35,3.35,3.35h61.3c1.85,0,3.35-1.5,3.35-3.35V18.37c0-1.85-1.5-3.35-3.35-3.35Zm-13,37.91c-.06.12-.12.25-.18.37-1,2.05-2,4.11-3,6.16-1.65,3.39-3.3,6.78-4.94,10.17-1.54,3.17-3.08,6.34-4.63,9.51-.68,1.4-1.36,2.8-2.05,4.21-.29.61-.91,1.08-1.55,1.36-.05.02-.1.04-.14.05-.1.04-.2.09-.3.11-.04.01-.09.01-.13.02-.09.02-.19.03-.29.05-.12.02-.23.03-.35.04-.04,0-.08.01-.12.01-.07,0-.14-.02-.22-.02-.11,0-.22-.02-.33-.03-.1-.02-.19-.04-.29-.07-.13-.03-.25-.07-.38-.12-.06-.02-.11-.05-.17-.08-.1-.04-.2-.08-.29-.13-.05-.03-.1-.08-.15-.11-.02-.01-.03-.03-.05-.04-.16-.11-.31-.24-.45-.37,0,0-.02-.02-.03-.03-.14-.14-.26-.29-.37-.45-.02-.02-.03-.05-.05-.07-.1-.15-.18-.3-.25-.46-.02-.05-.04-.11-.06-.16-.04-.1-.08-.19-.11-.28-.01-.04-.01-.09-.02-.13-.02-.1-.04-.21-.05-.32-.01-.1-.03-.21-.03-.31,0-.04-.01-.08-.01-.13v-17.62h-11.45c-1.17,0-2.28-.64-2.87-1.65-.3-.52-.45-1.08-.45-1.68,0-.6.15-1.16.45-1.68.06-.12.12-.24.18-.36.99-2.05,1.99-4.09,2.98-6.14,1.65-3.39,3.29-6.78,4.94-10.17,1.54-3.18,3.08-6.35,4.63-9.53.68-1.4,1.36-2.81,2.05-4.21.36-.75,1.21-1.31,1.99-1.53.59-.16,1.18-.16,1.77,0,1.43.39,2.44,1.73,2.44,3.2v17.61h11.47c1.17,0,2.28.64,2.87,1.65.3.52.45,1.08.45,1.68,0,.6-.15,1.16-.45,1.68Z"/>
</svg>