<?xml version="1.0" encoding="UTF-8"?>
<svg id="Layer_1" data-name="Layer 1" xmlns="http://www.w3.org/2000/svg" viewBox="0 0 100 100">
  <defs>
    <style>
      .cls-1 {
        fill: #a5a5a5;
      }
    </style>
  </defs>
  <path class="cls-1" d="m58.11,41.55c-2.28,0-4.34.91-5.94,2.51s-2.51,3.65-2.51,6.17c0,2.28.91,4.34,2.51,6.17,1.6,1.6,3.66,2.51,5.94,2.51s4.34-.91,5.94-2.51,2.51-3.66,2.51-6.17c0-2.28-.91-4.34-2.51-6.17-1.6-1.83-3.43-2.51-5.94-2.51Z"/>
  <path class="cls-1" d="m85.98,39.95c-1.14-10.74-10.28-19.19-21.24-19.19-3.2,0-6.4.69-9.14,2.06-4.11-6.85-11.42-11.42-19.87-11.42-12.79,0-23.3,10.51-23.3,23.07v2.06c-6.85,4.57-11.42,12.34-11.42,21.24,0,13.71,11.19,24.9,24.9,24.9,2.97,0,5.94-.46,8.68-1.6,3.88,4.57,9.82,7.54,16.45,7.54,7.31,0,13.93-3.66,17.82-9.37,2.74,1.14,5.71,1.83,8.68,1.83,11.88,0,21.47-9.59,21.47-21.47,0-8.68-5.48-16.45-13.02-19.65Zm-58.25,15.99c1.6,1.6,3.43,2.51,5.71,2.51,1.37,0,2.51-.23,3.65-.69.91-.46,2.06-1.14,3.2-2.28l2.51,2.74c-2.51,2.74-5.48,4.11-9.14,4.11s-6.62-1.14-8.91-3.43c-2.28-2.28-3.65-5.25-3.65-8.68s1.14-6.4,3.65-8.91c2.51-2.28,5.48-3.43,9.14-3.43s6.85,1.37,9.14,4.11l-2.51,2.74c-1.14-1.14-2.28-1.83-3.2-2.28s-2.28-.69-3.66-.69c-2.28,0-4.34.69-5.94,2.28s-2.51,3.43-2.51,5.94c.23,2.51.91,4.34,2.51,5.94Zm39.29,2.97c-2.28,2.28-5.25,3.43-8.91,3.43-3.43,0-6.4-1.14-8.91-3.43-2.51-2.28-3.66-5.25-3.66-8.68s1.14-6.4,3.66-8.68c2.28-2.28,5.25-3.43,8.91-3.43,3.43,0,6.4,1.14,8.91,3.43,2.51,2.28,3.66,5.25,3.66,8.68s-1.14,6.17-3.66,8.68Zm12.79,14.39h-10.05v-2.06l4.34-4.34c.91-.91,1.6-1.83,2.06-2.28s.69-1.14.69-1.6-.23-1.14-.69-1.37c-.46-.46-.91-.69-1.6-.69-1.14,0-2.06.69-2.97,1.83l-1.83-1.14c.69-.91,1.37-1.6,2.06-2.06.69-.46,1.83-.69,2.97-.69s2.28.46,3.2,1.14c.91.69,1.37,1.83,1.37,2.97,0,.69-.23,1.37-.46,2.06-.46.69-1.14,1.6-2.06,2.51l-3.43,3.43h6.4v2.28Z"/>
</svg>