<?xml version="1.0" encoding="UTF-8"?>
<svg id="Layer_1" data-name="Layer 1" xmlns="http://www.w3.org/2000/svg" viewBox="0 0 100 100">
  <defs>
    <style>
      .cls-1 {
        fill: #a5a5a5;
      }
    </style>
  </defs>
  <path class="cls-1" d="m65.55,61.66c-2.15,0-3.89,1.74-3.89,3.89s1.74,3.89,3.89,3.89,3.89-1.74,3.89-3.89-1.74-3.89-3.89-3.89Z"/>
  <path class="cls-1" d="m50,2C23.49,2,2,23.49,2,50s21.49,48,48,48,48-21.49,48-48S76.51,2,50,2Zm-15.55,20.79c6.44,0,11.66,5.22,11.66,11.66s-5.22,11.66-11.66,11.66-11.66-5.22-11.66-11.66,5.22-11.66,11.66-11.66Zm-3.09,51.34c-.13.15-.27.29-.42.42-1.63,1.4-4.09,1.21-5.48-.42-1.4-1.63-1.21-4.09.42-5.48l42.77-42.77c1.46-1.25,3.6-1.25,5.06,0,1.63,1.4,1.82,3.85.42,5.48l-42.77,42.77Zm34.19,3.09c-6.44,0-11.66-5.22-11.66-11.66s5.22-11.66,11.66-11.66,11.66,5.22,11.66,11.66-5.22,11.66-11.66,11.66Z"/>
  <path class="cls-1" d="m34.45,38.34c2.15,0,3.89-1.74,3.89-3.89s-1.74-3.89-3.89-3.89-3.89,1.74-3.89,3.89,1.74,3.89,3.89,3.89Z"/>
</svg>